# xmcd
#
# Track frame offsets:
#	150
#	11898
#	22989
#	35711
#	54766
#	67559
#	87373
#	101104
#	118445
#	138685
#	153717
#	174517
#	191414
#	203731
#	220266
#
# Disc length: 3124 seconds
#
# Revision: 3
# Processed by: cddbd v1.5.1PL2 Copyright (c) Steve Scherf et al.
# Submitted via: audiograbber 1.83.01
#
DISCID=d30c320f
DTITLE=Chartbuster Karaoke - CBE3-04
DYEAR=2003
DGENRE=Karaoke
TTITLE0=Statler Brothers, The - Flowers On The Wall
TTITLE1=Don Williams - It Must Be Love
TTITLE2=John Conlee - Backside Of Thirty
TTITLE3=K. T. Oslin - I'll Always Come Back
TTITLE4=Moe Bandy - It's A Cheating Situation
TTITLE5=Larry Gatlin - I've Done Enough Dyin' Today
TTITLE6=Judds, The - Let Me Tell You About Love
TTITLE7=David Allan Coe - Jack Daniels If You Please
TTITLE8=Kenny Rogers - She Believes In Me
TTITLE9=Tanya Tucker - Highway Robbery
TTITLE10=Eddie Rabbitt - Suspicions
TTITLE11=Willie Nelson - Whiskey River
TTITLE12=Dolly Parton - Why'd You Come In Here Lookin' Like That
TTITLE13=Conway Twitty - I'd Love To Lay You Down
TTITLE14=Merle Haggard - Misery And Gin
EXTD=
EXTT0=
EXTT1=
EXTT2=
EXTT3=
EXTT4=
EXTT5=
EXTT6=
EXTT7=
EXTT8=
EXTT9=
EXTT10=
EXTT11=
EXTT12=
EXTT13=
EXTT14=
PLAYORDER=
